<?xml version="1.0" encoding="utf-8"?>
<!-- Generator: Adobe Illustrator 23.0.1, SVG Export Plug-In . SVG Version: 6.00 Build 0)  -->
<svg version="1.1" id="Layer_1" xmlns="http://www.w3.org/2000/svg" xmlns:xlink="http://www.w3.org/1999/xlink" x="0px" y="0px"
	 viewBox="0 0 570.6 884.6" enable-background="new 0 0 570.6 884.6" xml:space="preserve">
<rect x="20.7" y="21.4" fill="#CAF0F9" width="534.7" height="208.9"/>
<rect x="20.7" y="230.3" fill="#5FB2B8" width="534.7" height="631.8"/>
<g>
	<polygon fill="#2A7D8D" points="514.1,466.3 506.1,438.3 505.1,407.3 514.1,376.3 532.1,357.3 541.1,328.3 536.1,303.3
		490.1,259.3 490.1,238.3 471.1,230.3 191.1,230.3 173.1,251.3 160.1,240.8 125.1,240.8 116.1,268.3 55.1,240.3 36.1,309.3
		45.1,391.3 70.1,421.3 48.1,452.3 83.1,468.3 105.1,468.3 112.5,505.3 506.9,505.3 	"/>
	<path fill="#0D535F" d="M112.5,505.3l12.6,63l27,19l-3,31l94,160c0,0,11,21,7,33l63,45l37-66l39-6l31-54l22-19l11-83l17-24l31-11
		v-26v-31l5.8-31L112.5,505.3L112.5,505.3z"/>
</g>
<polygon fill="#AEDAE5" points="192.1,230.3 213.1,211.3 247.1,200.3 283.1,139.3 306.7,93.3 312.1,77.3 342.1,43.3 336.1,101.3
	307.1,142.3 317.1,230.3 "/>
<polygon fill="#78C1D2" points="342.1,43.3 336.1,101.3 307.1,142.3 317.1,230.3 385.1,230.3 336.1,101.3 348.1,90.3 "/>
<polygon fill="#6EB1C2" points="336.1,101.3 348.1,90.3 407.1,179.3 442.1,219.3 467.1,230.3 385.1,230.3 "/>
<polygon fill="#AEDAE5" points="348.1,90.3 396.1,129.3 396.1,162.7 "/>
<polygon fill="#78C1D2" points="396.1,162.7 396.1,129.3 411.1,149.8 431.3,206.9 407.1,179.3 "/>
<polygon fill="#78C1D2" points="247.1,200.3 243.7,230.3 273.4,230.3 "/>
<polygon fill="#6EB1C2" points="247.1,200.3 317.1,230.3 273.4,230.3 "/>
<text transform="matrix(1 0 0 1 61.8672 162.7734)" stroke="#FFFFFF" stroke-miterlimit="10" font-family="'Asap-Regular',Asap,Sans-Serif" font-size="125.2936px">A</text>
<text transform="matrix(1 0 0 1 61.8672 402.7734)" stroke="#FFFFFF" stroke-miterlimit="10" font-family="'Asap-Regular',Asap,Sans-Serif" font-size="125.2936px">B</text>
<text transform="matrix(1 0 0 1 61.8672 702.7734)" stroke="#FFFFFF" stroke-miterlimit="10" font-family="'Asap-Regular',Asap,Sans-Serif" font-size="125.2936px">C</text>
</svg>
